<svg width="300" height="300" viewBox="0 0 300 300" xmlns="http://www.w3.org/2000/svg">
  <defs>
    <pattern id="arabesque-floral" x="0" y="0" width="150" height="150" patternUnits="userSpaceOnUse">
      <!-- Central flower -->
      <circle cx="75" cy="75" r="5" fill="#007A3D" opacity="0.4"/>
      <path d="M75,70 Q90,55 105,70 Q120,85 105,100 Q90,115 75,100 Q60,85 75,70 Z" fill="none" stroke="#007A3D" stroke-width="1.5" opacity="0.3"/>
      <path d="M75,65 Q95,45 115,65 Q135,85 115,105 Q95,125 75,105 Q55,85 75,65 Z" fill="none" stroke="#007A3D" stroke-width="1" opacity="0.2"/>
      
      <!-- Vine patterns -->
      <path d="M75,75 Q100,50 125,75 Q150,100 125,125 Q100,150 75,125 Q50,100 75,75 Z" fill="none" stroke="#CE1126" stroke-width="1.5" opacity="0.3"/>
      <path d="M75,75 Q100,100 125,75 Q150,50 125,25 Q100,0 75,25 Q50,50 75,75 Z" fill="none" stroke="#CE1126" stroke-width="1.5" opacity="0.3"/>
      <path d="M75,75 Q50,100 25,75 Q0,50 25,25 Q50,0 75,25 Q100,50 75,75 Z" fill="none" stroke="#CE1126" stroke-width="1.5" opacity="0.3"/>
      <path d="M75,75 Q50,50 25,75 Q0,100 25,125 Q50,150 75,125 Q100,100 75,75 Z" fill="none" stroke="#CE1126" stroke-width="1.5" opacity="0.3"/>
      
      <!-- Gold accents -->
      <circle cx="75" cy="25" r="3" fill="#FFD700" opacity="0.4"/>
      <circle cx="125" cy="75" r="3" fill="#FFD700" opacity="0.4"/>
      <circle cx="75" cy="125" r="3" fill="#FFD700" opacity="0.4"/>
      <circle cx="25" cy="75" r="3" fill="#FFD700" opacity="0.4"/>
      
      <!-- Small decorative elements -->
      <path d="M75,25 Q80,20 85,25 Q90,30 85,35 Q80,40 75,35 Q70,30 75,25 Z" fill="none" stroke="#FFD700" stroke-width="1" opacity="0.3"/>
      <path d="M125,75 Q130,70 135,75 Q140,80 135,85 Q130,90 125,85 Q120,80 125,75 Z" fill="none" stroke="#FFD700" stroke-width="1" opacity="0.3"/>
      <path d="M75,125 Q80,120 85,125 Q90,130 85,135 Q80,140 75,135 Q70,130 75,125 Z" fill="none" stroke="#FFD700" stroke-width="1" opacity="0.3"/>
      <path d="M25,75 Q30,70 35,75 Q40,80 35,85 Q30,90 25,85 Q20,80 25,75 Z" fill="none" stroke="#FFD700" stroke-width="1" opacity="0.3"/>
    </pattern>
  </defs>
  <rect width="300" height="300" fill="url(#arabesque-floral)"/>
</svg>
