<svg width="800" height="20" viewBox="0 0 800 20" xmlns="http://www.w3.org/2000/svg">
  <defs>
    <pattern id="arabesque-border" x="0" y="0" width="100" height="20" patternUnits="userSpaceOnUse">
      <!-- Base line -->
      <line x1="0" y1="10" x2="100" y2="10" stroke="#FFD700" stroke-width="2" opacity="0.8"/>
      
      <!-- Decorative elements -->
      <path d="M10,10 C15,5 20,5 25,10 C30,15 35,15 40,10 C45,5 50,5 55,10 C60,15 65,15 70,10 C75,5 80,5 85,10 C90,15 95,15 100,10" 
            fill="none" stroke="#FFD700" stroke-width="1.5" opacity="0.6"/>
      
      <!-- Small accents -->
      <circle cx="10" cy="10" r="2" fill="#007A3D" opacity="0.7"/>
      <circle cx="40" cy="10" r="2" fill="#007A3D" opacity="0.7"/>
      <circle cx="70" cy="10" r="2" fill="#007A3D" opacity="0.7"/>
      <circle cx="100" cy="10" r="2" fill="#007A3D" opacity="0.7"/>
      
      <circle cx="25" cy="10" r="1.5" fill="#CE1126" opacity="0.7"/>
      <circle cx="55" cy="10" r="1.5" fill="#CE1126" opacity="0.7"/>
      <circle cx="85" cy="10" r="1.5" fill="#CE1126" opacity="0.7"/>
    </pattern>
  </defs>
  <rect width="800" height="20" fill="url(#arabesque-border)"/>
</svg>
